HIERARCHY
ROOT Hips
{
	OFFSET 0.000000 0.000000 0.000000 
	CHANNELS 6 Xposition Yposition Zposition Zrotation Yrotation Xrotation
	JOINT LeftUpLeg
	{
		OFFSET 1.363060 -1.794630 0.839290 
		CHANNELS 3 Zrotation Yrotation Xrotation
		JOINT LeftLeg
		{
			OFFSET 2.448110 -6.726130 0.000000 
			CHANNELS 3 Zrotation Yrotation Xrotation
			JOINT LeftFoot
			{
				OFFSET 2.562200 -7.039590 0.000000 
				CHANNELS 3 Zrotation Yrotation Xrotation
				JOINT LeftToeBase
				{
					OFFSET 0.157640 -0.433110 2.322550 
					CHANNELS 3 Zrotation Yrotation Xrotation
					End Site
					{
						OFFSET 0.000000 0.000000 0.000000 
					}
				}
			}
		}
	}
	JOINT RightUpLeg
	{
		OFFSET -1.305520 -1.794630 0.839290 
		CHANNELS 3 Zrotation Yrotation Xrotation
		JOINT RightLeg
		{
			OFFSET -2.542530 -6.985550 0.000000 
			CHANNELS 3 Zrotation Yrotation Xrotation
			JOINT RightFoot
			{
				OFFSET -2.568260 -7.056230 0.000000 
				CHANNELS 3 Zrotation Yrotation Xrotation
				JOINT RightToeBase
				{
					OFFSET -0.164730 -0.452590 2.363150 
					CHANNELS 3 Zrotation Yrotation Xrotation
					End Site
					{
						OFFSET 0.000000 0.000000 0.000000 
					}
				}
			}
		}
	}
	JOINT Spine
	{
		OFFSET 0.028270 2.035590 -0.193380 
		CHANNELS 3 Zrotation Yrotation Xrotation
		JOINT Spine1
		{
			OFFSET 0.056720 2.048850 -0.042750 
			CHANNELS 3 Zrotation Yrotation Xrotation
			JOINT Neck1
			{
				OFFSET -0.054170 1.746240 0.172020 
				CHANNELS 3 Zrotation Yrotation Xrotation
				JOINT Head
				{
					OFFSET 0.104070 1.761360 -0.123970 
					CHANNELS 3 Zrotation Yrotation Xrotation
					End Site
					{
						OFFSET 0.000000 0.000000 0.000000 
					}
				}
			}
			JOINT LeftArm
			{
				OFFSET 3.362410 1.200890 -0.311210 
				CHANNELS 3 Zrotation Yrotation Xrotation
				JOINT LeftForeArm
				{
					OFFSET 4.983000 -0.000000 -0.000000 
					CHANNELS 3 Zrotation Yrotation Xrotation
					JOINT LeftHand
					{
						OFFSET 3.483560 -0.000000 -0.000000 
						CHANNELS 3 Zrotation Yrotation Xrotation
						JOINT LeftHandIndex1
						{
							OFFSET 0.715260 -0.000000 -0.000000 
							CHANNELS 3 Zrotation Yrotation Xrotation
							End Site
							{
								OFFSET 0.000000 0.000000 0.000000 
							}
						}
					}
				}
			}
			JOINT RightArm
			{
				OFFSET -3.136600 1.374050 -0.404650 
				CHANNELS 3 Zrotation Yrotation Xrotation
				JOINT RightForeArm
				{
					OFFSET -5.241900 -0.000000 -0.000000 
					CHANNELS 3 Zrotation Yrotation Xrotation
					JOINT RightHand
					{
						OFFSET -3.444170 -0.000000 -0.000000 
						CHANNELS 3 Zrotation Yrotation Xrotation
						JOINT RightHandIndex1
						{
							OFFSET -0.622530 -0.000000 -0.000000 
							CHANNELS 3 Zrotation Yrotation Xrotation
							End Site
							{
								OFFSET 0.000000 0.000000 0.000000 
							}
						}
					}
				}
			}
		}
	}
}
MOTION
Frames: 12
Frame Time: 0.041667
-14.236191 17.731703 -13.764997 -1.944163 34.316487 15.898635 -9.219955 -8.443480 -41.288408 -0.856677 4.901183 14.993947 -1.484596 6.987883 1.911084 0.481800 -4.451300 -12.349800 16.345285 7.471013 -18.623947 -0.594122 -6.879183 24.238196 3.191914 -10.922269 -8.549901 -0.110100 2.139300 -5.890900 4.936815 2.410895 2.783731 1.432025 1.668669 -3.791619 -7.021819 8.997610 26.279459 -1.794500 2.997600 12.799400 -84.448792 2.305396 15.504122 26.182014 -34.529537 -8.208993 0.018239 -0.189702 -14.100525 -7.125000 0.000000 0.000000 80.136466 -10.708695 15.550380 -15.961076 23.270588 -3.743650 0.652805 -0.336133 -4.759796 7.125000 0.000000 0.000000 
-14.175104 17.721105 -13.697812 -2.087013 34.524527 15.886650 -8.978473 -8.483062 -41.143076 -0.942357 4.652097 14.250678 -1.601589 7.372608 2.420569 0.526200 -4.648600 -12.908900 16.448962 7.492915 -18.263124 -0.550400 -6.798176 24.012934 3.244105 -11.039940 -8.589143 -0.076900 1.789000 -4.922800 4.938812 2.376273 2.779109 1.410807 1.653468 -3.717257 -6.959003 9.019356 26.433167 -1.764100 3.005400 12.878400 -84.442917 2.466698 15.366077 26.005154 -34.340744 -8.100616 0.018712 -0.188915 -14.005549 -7.125000 0.000000 0.000000 80.112711 -10.548824 15.777719 -16.013697 23.332564 -3.765843 0.651979 -0.336029 -4.848491 7.125000 0.000000 0.000000 
-14.112719 17.710308 -13.630027 -2.049744 34.790960 15.951194 -9.051588 -8.399122 -41.065635 -1.023695 4.413892 13.554923 -1.714674 7.759285 3.051793 0.711200 -5.389600 -15.023100 16.363243 7.643209 -17.833599 -0.498154 -6.716044 23.768454 3.282267 -11.142033 -8.785682 -0.034600 1.200900 -3.301700 4.813559 2.362873 2.685468 1.428759 1.646236 -3.746542 -6.950211 8.903341 26.516352 -1.784700 2.961900 12.893800 -84.445368 2.589248 15.241617 25.768947 -34.096433 -7.962382 0.012673 -0.188539 -13.671729 -7.125000 0.000000 0.000000 80.133574 -10.435100 16.008354 -16.011792 23.322583 -3.762688 0.663732 -0.326281 -5.077321 7.125000 0.000000 0.000000 
-14.050533 17.699610 -13.564342 -2.089058 35.113223 15.919408 -8.908956 -8.535601 -40.842770 -1.095610 4.173893 12.888295 -1.764838 7.941006 3.468628 0.674000 -5.249700 -14.622200 16.393422 7.572379 -17.464806 -0.447625 -6.638662 23.530639 3.365267 -11.350915 -8.996004 -0.028600 1.092600 -3.003600 4.787652 2.361956 2.704380 1.454012 1.650025 -3.763912 -6.985898 8.834778 26.491194 -1.819000 2.940100 12.863900 -84.476935 2.646770 15.329953 25.487793 -33.801133 -7.799918 0.008435 -0.184655 -13.461060 -7.125000 0.000000 0.000000 80.184661 -10.271705 15.828044 -16.034956 23.347874 -3.771399 0.661023 -0.324400 -5.018730 7.125000 0.000000 0.000000 
-13.984347 17.690312 -13.495358 -2.156924 35.365148 16.011494 -8.709213 -8.693614 -40.711334 -1.164060 3.935410 12.218120 -1.798595 8.073733 3.796114 0.568800 -4.830100 -13.424600 16.460260 7.509685 -17.215831 -0.403132 -6.564716 23.309350 3.496023 -11.660838 -9.154678 -0.032100 1.156700 -3.180100 4.760769 2.400399 2.658259 1.491350 1.671074 -3.679180 -6.911268 8.738530 26.586646 -1.800800 2.902300 12.907400 -84.487017 2.697474 15.367718 25.199520 -33.485250 -7.628915 0.007730 -0.185134 -13.308865 -7.125000 0.000000 0.000000 80.195722 -10.166819 15.870864 -16.124226 23.455151 -3.802953 0.639911 -0.302295 -5.034246 7.125000 0.000000 0.000000 
-13.916163 17.680814 -13.426373 -2.086116 35.706341 16.127864 -8.552916 -9.025976 -40.466050 -1.223284 3.696782 11.586387 -1.834326 8.211174 4.197655 0.526200 -4.648500 -12.908800 16.445578 7.390780 -16.917070 -0.359905 -6.502609 23.101721 3.668505 -12.072111 -9.359984 -0.043300 1.343100 -3.693300 4.635834 2.392888 2.555342 1.520060 1.664536 -3.716942 -6.857005 8.579884 26.805630 -1.793700 2.826200 13.012100 -84.472154 2.795275 15.410514 24.888490 -33.146072 -7.447660 0.005819 -0.186793 -13.260725 -7.125000 0.000000 0.000000 80.228742 -10.136096 16.337956 -16.216408 23.566510 -3.837669 0.645899 -0.276612 -6.273916 7.125000 0.000000 0.000000 
-13.841280 17.672816 -13.358689 -1.932388 36.125028 16.120144 -8.580359 -9.308475 -40.070762 -1.279852 3.459939 10.992439 -1.858948 8.328152 4.786851 0.580000 -4.876600 -13.557000 16.352852 7.171732 -16.491486 -0.321128 -6.459197 22.931161 3.784043 -12.363703 -9.606263 -0.060800 1.591100 -4.376800 4.561535 2.317636 2.552671 1.541237 1.627402 -3.842839 -6.808618 8.471011 26.966440 -1.774200 2.768300 13.079200 -84.652756 2.793913 15.068120 24.481034 -32.704413 -7.213589 0.002179 -0.185960 -12.849757 -7.125000 0.000000 0.000000 80.169971 -10.114899 16.660519 -16.327467 23.713724 -3.886613 0.649811 -0.267686 -6.706147 7.125000 0.000000 0.000000 
-13.762398 17.666018 -13.291704 -1.833087 36.411366 16.276348 -8.653220 -9.471295 -39.935431 -1.327391 3.263473 10.476092 -1.881696 8.452084 5.308468 0.611400 -5.004700 -13.922000 16.247982 7.002580 -16.249461 -0.280763 -6.408561 22.750758 3.834785 -12.503609 -9.814542 -0.071700 1.727100 -4.751900 4.405436 2.294045 2.454754 1.525052 1.610697 -3.859754 -6.763606 8.410651 27.061729 -1.768800 2.748100 13.117300 -84.733446 2.825011 14.866607 24.047699 -32.226429 -6.968614 -0.003226 -0.183135 -12.577986 -7.125000 0.000000 0.000000 80.176518 -10.115179 16.984945 -16.476794 23.905302 -3.955916 0.659258 -0.274225 -7.029662 7.125000 0.000000 0.000000 
-13.685815 17.655020 -13.222719 -1.917311 36.643146 16.368568 -8.459317 -9.695116 -39.857183 -1.356928 3.117026 10.067802 -1.862955 8.467882 5.854038 0.502000 -4.542100 -12.607000 16.283013 6.977036 -15.976037 -0.241012 -6.341338 22.561418 3.813166 -12.474793 -9.985619 -0.059700 1.576900 -4.337900 4.224770 2.308882 2.405321 1.439740 1.611623 -3.798345 -6.630997 8.297611 27.126776 -1.738700 2.714900 13.153000 -84.730304 2.783505 14.610181 23.642867 -31.778880 -6.745002 -0.012662 -0.177443 -12.152682 -7.125000 0.000000 0.000000 80.285690 -10.042096 17.184562 -16.653661 24.118159 -4.032235 0.669360 -0.263418 -7.252162 7.125000 0.000000 0.000000 
-13.605933 17.643623 -13.150136 -1.930744 36.969154 16.473040 -8.377419 -9.928403 -39.751904 -1.378614 2.992489 9.745830 -1.825058 8.431259 6.472872 0.369200 -3.903100 -10.804100 16.303208 6.811486 -15.732793 -0.206883 -6.285118 22.385208 3.895347 -12.673307 -10.091626 -0.062500 1.613600 -4.439000 4.281841 2.265612 2.522048 1.500614 1.598101 -3.608803 -6.546655 8.184347 27.169685 -1.703100 2.657700 13.188800 -84.887061 2.652178 14.144726 23.234057 -31.307044 -6.514778 -0.017047 -0.175821 -11.464066 -7.125000 0.000000 0.000000 80.216257 -9.840948 17.226727 -16.802019 24.298818 -4.094503 0.663916 -0.244325 -7.286098 7.125000 0.000000 0.000000 
-13.522352 17.629526 -13.076352 -1.943489 37.284325 16.507941 -8.370991 -10.077121 -39.597828 -1.394438 2.904841 9.510657 -1.826024 8.527228 7.111260 0.363900 -3.874900 -10.725100 16.341042 6.636613 -15.409807 -0.182585 -6.243146 22.241932 4.047081 -13.019015 -10.110301 -0.085700 1.888100 -5.196600 4.149201 2.357513 2.346146 1.466175 1.637634 -3.653117 -6.526208 7.911781 27.228354 -1.748100 2.558000 13.163700 -84.971499 2.851078 14.001116 22.881948 -30.899876 -6.321133 -0.017787 -0.174678 -11.087722 -7.125000 0.000000 0.000000 80.298277 -9.977699 17.221178 -16.943992 24.478516 -4.157248 0.656413 -0.236852 -7.327228 7.125000 0.000000 0.000000 
-13.435871 17.616629 -13.003669 -1.851196 37.447302 16.664613 -8.448139 -10.238002 -39.534318 -1.404428 2.835856 9.333131 -1.869281 8.737311 7.635638 0.346500 -3.782100 -10.464500 16.240177 6.523252 -15.167573 -0.165085 -6.211956 22.116840 4.285395 -13.548008 -10.060147 -0.144300 2.448300 -6.746200 4.253702 2.388302 2.650039 1.652390 1.672213 -3.332997 -6.612394 7.848626 27.084180 -1.783000 2.514300 13.139600 -85.219892 2.721771 14.048796 22.632760 -30.595156 -6.184517 -0.022359 -0.175057 -11.281215 -7.125000 0.000000 0.000000 80.062320 -9.600041 17.377439 -17.013379 24.561983 -4.188596 0.655437 -0.233313 -7.465975 7.125000 0.000000 0.000000 
